<svg width="1106" height="340" id="Layer_1" data-name="Layer 1" xmlns="http://www.w3.org/2000/svg" xmlns:xlink="http://www.w3.org/1999/xlink" viewBox="0 0 1106 340"><defs><style>.cls-1{fill:#0061ae;}.cls-2{fill:url(#linear-gradient);}.cls-3{fill:url(#linear-gradient-2);}</style><linearGradient id="linear-gradient" x1="-2239.49" y1="419.64" x2="-2258.99" y2="438.39" gradientTransform="translate(-1856 470) rotate(180)" gradientUnits="userSpaceOnUse"><stop offset="0.2" stop-color="#8cc63f"/><stop offset="0.26" stop-color="#9acb3b"/><stop offset="0.53" stop-color="#cfde2d"/><stop offset="0.74" stop-color="#f0ea24"/><stop offset="0.85" stop-color="#fcee21"/></linearGradient><linearGradient id="linear-gradient-2" x1="-2799.79" y1="419.64" x2="-2819.3" y2="438.39" gradientTransform="translate(-1856 470) rotate(180)" gradientUnits="userSpaceOnUse"><stop offset="0.2" stop-color="#ff9824"/><stop offset="0.44" stop-color="#ff751d"/><stop offset="0.7" stop-color="#ff5416"/><stop offset="0.85" stop-color="#ff4814"/></linearGradient></defs><path class="cls-1" d="M261.53,215.7a29,29,0,0,1,.73-2.83,1.47,1.47,0,0,1,1-.64c2.36-.63,4.75-1.16,7.11-1.81A159.42,159.42,0,0,0,323,184.66c3.71-2.73,7.24-5.72,10.85-8.58.29-.23.58-.44.89-.67.87,2.11-1.12,20.1-3.64,30.4a159.94,159.94,0,0,1-9.95,29A161.09,161.09,0,0,1,261.53,215.7Z"/><path class="cls-1" d="M166,325c-1.25-.19-2.49-.44-3.74-.58A144.12,144.12,0,0,1,134,318.42c-4.57-1.47-9-3.24-13.56-4.85a1.89,1.89,0,0,1-1.38-1.7c-.87-5.3-1.55-10.62-1.91-16-.15-2.16-.25-4.32-.37-6.49,0-.32,0-.64,0-1,5.85-2.19,9.5-6.21,9.69-12.57s-3.16-10.62-8.93-13.16c2-23.23,8.36-45,20.58-65.05a13.84,13.84,0,0,0,11.82-1.7l1.41.73a151.37,151.37,0,0,0,45.1,16.25,164.92,164.92,0,0,0,19.44,2.56,149.39,149.39,0,0,0,19.62.3,1.5,1.5,0,0,1,1.61,1,13.06,13.06,0,0,0,8.84,6.89,12.59,12.59,0,0,0,9.66-1.46,2.21,2.21,0,0,1,2.56-.05,162.67,162.67,0,0,0,43.09,16.53c4.86,1.1,9.8,1.84,14.7,2.75l1.74.33c-.27.56-.49,1.05-.74,1.52A152.48,152.48,0,0,1,297.14,272a154.41,154.41,0,0,1-70.3,46.16,149.11,149.11,0,0,1-29,6.16c-1.3.15-2.59.39-3.88.59Z"/><path class="cls-1" d="M198.23,50.31c1.53-.16,3-.42,4.51-.47,5-.17,10.08-.4,15.11-.35a127.89,127.89,0,0,1,26.86,3.28c22.46,5,42.86,14.65,61.59,27.91a7.26,7.26,0,0,1,1.74,1.8,153.32,153.32,0,0,1,24.17,57.23c.14.72.27,1.45.43,2.36-.57-.21-1-.33-1.34-.48a218.52,218.52,0,0,0-41.36-12.71c-6.05-1.2-12.15-2.08-18.29-2.72a165,165,0,0,0-23-.75A141.89,141.89,0,0,0,204.48,134l-.25.11a1.58,1.58,0,0,1-2.21-.44,12.24,12.24,0,0,0-6.3-3.57,11.41,11.41,0,0,0-4.9-.26,12.47,12.47,0,0,1-1.37.11c-.16-.52-.33-1-.46-1.48a133.5,133.5,0,0,1-4-22.62,155,155,0,0,1-.42-20.33c.29-7.24,1.08-14.44,2-21.63A2.81,2.81,0,0,1,189,61a12.76,12.76,0,0,0,8.77-8.86C197.9,51.63,198,51.08,198.23,50.31Z"/><path class="cls-1" d="M179.49,146.22a154.45,154.45,0,0,0-31.57,26.36c-5.45-2.14-10.41-1.22-14.91,2.65-15.86-13.34-27.91-29.53-37.28-47.91.24-.29.45-.59.7-.86a13.32,13.32,0,0,0,1.72-16.07c-.63-1.11-.64-1.12.13-2.09,15.52-19.63,34.26-35.25,57-45.89a131.47,131.47,0,0,1,17.5-6.75c.21-.07.44-.12.77-.21a14.28,14.28,0,0,0,6.05,5.21c-.13,1.31-.28,2.64-.42,4-.47,4.4-1.07,8.78-1.39,13.19-.37,5-.69,10-.7,14.94a137.79,137.79,0,0,0,5.48,39.7,2.18,2.18,0,0,1-.45,2.28,13,13,0,0,0-2.72,10.74C179.44,145.67,179.45,145.86,179.49,146.22Z"/><path class="cls-1" d="M261.31,205.11c-4.31-8.46-14.72-10.56-21.95-3.91-16.56-12.68-30.15-27.91-40-46.4,5-3.92,6.63-6.89,6.66-13.6.44-.18.9-.4,1.38-.57a134.3,134.3,0,0,1,27.09-6.69,149.42,149.42,0,0,1,26.06-1.29,169,169,0,0,1,23.85,2.57,212.18,212.18,0,0,1,47.68,14.59c1.34.59,2.09,1.23,2.16,2.83.16,3.85.51,7.69.81,11.54a2.12,2.12,0,0,1-.78,1.85c-20.64,19-44.24,32.47-71.71,38.83C262.19,205,261.78,205,261.31,205.11Z"/><path class="cls-1" d="M62.61,205.73c-.32-27.17,7.1-52.09,20.57-75.22,1.91,0,3.64.07,5.37.06.6,0,.83.33,1.06.76.68,1.29,1.35,2.59,2,3.87a157.75,157.75,0,0,0,28.46,38.11c2.69,2.62,5.55,5.08,8.37,7.58a1.78,1.78,0,0,1,.74,1.81A13.12,13.12,0,0,0,131.76,193c.11.15.19.32.34.58-12.85,21.07-19.57,44.13-21.81,68.65-6.53,2.13-10.5,6.37-10.45,13.42,0,6.4,3.68,10.43,9.41,12.69.62,7,1.23,13.88,1.85,20.87a8.2,8.2,0,0,1-3.19-1.87,152.37,152.37,0,0,1-22.76-27.63,141,141,0,0,1-19.28-45.82c-.17-.78-.3-1.56-.46-2.4,6-3.23,9.14-8.08,7.91-14.94C72.28,210.7,68.44,207.27,62.61,205.73Z"/><path class="cls-1" d="M77,126.64c-1.4,2.59-2.76,5-4.07,7.55a154.74,154.74,0,0,0-14.76,41.34A125.87,125.87,0,0,0,55.69,194q-.28,5.5-.38,11a2.15,2.15,0,0,1-1.3,2.18,13.26,13.26,0,0,0-5.63,18.05A13,13,0,0,0,57,232a1.53,1.53,0,0,1,1.32,1.37,149.62,149.62,0,0,0,27,59.28c.14.18.26.38.41.61-5.22-2.5-22.36-19.79-30.37-30.59a154.24,154.24,0,0,1-20.67-37.94,156.63,156.63,0,0,1-9.36-42.16,154.74,154.74,0,0,1,2.6-43.11A151.67,151.67,0,0,1,42.28,98.69C48.63,86.49,62,67.81,67.6,63.51c.17,1,.35,2,.48,2.92a187.66,187.66,0,0,0,10,39,1.63,1.63,0,0,1-.48,2.07,13.21,13.21,0,0,0-1.23,18.25C76.56,126,76.74,126.31,77,126.64Z"/><path class="cls-1" d="M91.86,104.62l-6.68-1c-.1-.23-.28-.6-.42-1A178.83,178.83,0,0,1,75.91,69.3C75.3,65.54,74.85,61.75,74.3,58a2.13,2.13,0,0,1,.79-2.09A154.48,154.48,0,0,1,144.2,19.23a149.62,149.62,0,0,1,20.59-3.41,147.23,147.23,0,0,1,23-.54c.33,0,.66,0,1,.08.09,0,.16.09.33.18q-2.52,9.62-5,19.3c-1,.23-2,.4-3,.69a13.36,13.36,0,0,0-9.45,11.68c-.09,1.19-.09,1.19-1.49,1.63a149.23,149.23,0,0,0-41.47,20.53,171.17,171.17,0,0,0-35.8,34.07Z"/><path class="cls-1" d="M183.07,152.61c.72.55,1.34,1,2,1.51a11.43,11.43,0,0,0,5.6,2.15,2.33,2.33,0,0,1,2.1,1.51,135.17,135.17,0,0,0,11.72,18.62,155.78,155.78,0,0,0,30.17,30.36c.48.37,1.26.58,1.09,1.44-2.53,1.07-20.22.22-29-.95-22.81-3.06-41.91-11.05-51.92-17.13.26-1.14.58-2.26.78-3.41a12.61,12.61,0,0,0-1.52-8.31c-.57-1-.76-1,.2-2.05a145.55,145.55,0,0,1,28-23.35C182.56,152.88,182.77,152.78,183.07,152.61Z"/><path class="cls-1" d="M191.28,36.53c1.52-7,3.3-13.76,5.48-20.56A153.26,153.26,0,0,1,292,63.05c-.35-.17-.7-.33-1-.51a172.23,172.23,0,0,0-46.4-17.26,146.81,146.81,0,0,0-16-2.46,125.79,125.79,0,0,0-15.64-.73c-4.89.14-9.77.56-14.65.85l-1,.07A14.53,14.53,0,0,0,191.28,36.53Z"/><path class="cls-1" d="M735.18,170c-.39-.31-.55-.47-.74-.6-3.33-2.19-4.85-5.44-5.23-9.26a18.85,18.85,0,0,1,.4-6.73,16.89,16.89,0,0,1,6.7-9.5c1.48-1.08,3.12-1.93,4.68-2.89l.69-.42c-.19-.21-.3-.42-.47-.51-8.15-4.2-12.71-11.19-14.94-19.76a34.8,34.8,0,0,1,22.6-42.49A51.6,51.6,0,0,1,776,76.06a28,28,0,0,1,9.05,3.47,2.43,2.43,0,0,0,3.32-.31c5.58-5.15,12.34-7.37,19.76-8a64.75,64.75,0,0,1,11.14.09,5.57,5.57,0,0,1,.79.22c-1.83,6.78-3.64,13.47-5.47,20.28-4.35-.55-8.6-1.61-13-.23.31.51.5.88.74,1.22a37.73,37.73,0,0,1,6.76,23.44c-.26,9.59-4.31,17.2-11.85,23A42.54,42.54,0,0,1,775.4,148a55.45,55.45,0,0,1-17.15-.62c-.72-.15-1.44-.35-2.29-.56a10.78,10.78,0,0,0-.55,1.47c-.22,1.06-.41,2.13-.54,3.2a3.82,3.82,0,0,0,1.34,3.68,17.39,17.39,0,0,0,3.56,2.25,41.22,41.22,0,0,0,10.6,2.83c8.86,1.47,17.75,2.83,26.52,4.81a37.77,37.77,0,0,1,12.51,5c4.68,3.06,8.09,7.07,9.22,12.66,1.67,8.26-.51,15.48-6.29,21.59a41.79,41.79,0,0,1-13.73,9.25A69.73,69.73,0,0,1,780,218.64a113.89,113.89,0,0,1-19.87,1.06c-7.81-.27-15.46-1.44-22.71-4.54a38.2,38.2,0,0,1-12.69-8.53,20.68,20.68,0,0,1-6.28-15.52,19.43,19.43,0,0,1,2.83-9.79,25.61,25.61,0,0,1,12.43-10.67C734.14,170.48,734.56,170.27,735.18,170ZM766.7,199.9c2.2-.13,4.42-.19,6.61-.41a26.68,26.68,0,0,0,8.21-1.9,8.58,8.58,0,0,0,3.9-2.92c1.46-2.13,2-5.11-1.1-7.27a18.39,18.39,0,0,0-2.7-1.53,15.78,15.78,0,0,0-3-1.15c-3.65-.9-7.3-1.78-11-2.54-6.81-1.39-13.71-2.4-20.36-4.48a1.22,1.22,0,0,0-1.39.34,11.47,11.47,0,0,0-3.44,8.8,9.8,9.8,0,0,0,3.83,7.12,21.67,21.67,0,0,0,7.62,4.17A43.06,43.06,0,0,0,766.7,199.9Zm.18-73.7c.66,0,1.42-.06,2.16-.15,5.71-.7,9.27-3.75,10.44-9.3a28.64,28.64,0,0,0,.45-3.2c.79-7.89-5-15.23-12-16.27a24.33,24.33,0,0,0-5.19-.16,9.71,9.71,0,0,0-9.09,7.23,19.88,19.88,0,0,0,0,12.09C755.54,122,759.74,126.4,766.88,126.2Z"/><path class="cls-1" d="M606.5,77.9h1.75c9.42,0,18.84,0,28.26,0a2.14,2.14,0,0,1,2.33,1.48q12.57,28.71,25.21,57.38c.26.58.59,1.13,1.05,2,.36-.83.61-1.31.78-1.82l16.64-48.3q1.62-4.74,3.27-9.47c.43-1.24.44-1.26,1.67-1.26h27.13c.28,0,.55,0,1,.09-.21.65-.37,1.2-.58,1.74l-12.84,33q-11.87,30.51-23.75,61a139.93,139.93,0,0,1-11.83,24,64.65,64.65,0,0,1-9.26,11.72,34.51,34.51,0,0,1-18.48,9.37,62,62,0,0,1-18.15.34,57.71,57.71,0,0,1-15.67-4c-.47-.2-.92-.43-1.51-.71L611,192.06c.52.21.9.35,1.28.52A36,36,0,0,0,625.64,196a16.09,16.09,0,0,0,10.73-3.17,27.63,27.63,0,0,0,6.36-6.76,67.19,67.19,0,0,0,7.17-14.21,2.32,2.32,0,0,0-.24-2q-3.58-7.59-7.16-15.19L607.1,79.39C606.91,79,606.76,78.55,606.5,77.9Z"/><path class="cls-1" d="M427.67,78.17c1.19-.33,24-.38,25.56,0,1,3,1.93,6.09,3,9.39.59-.39,1.06-.67,1.49-1A57.48,57.48,0,0,1,474,78.15a49.64,49.64,0,0,1,17.82-2.33,30.46,30.46,0,0,1,16.78,5.56c5.7,4.16,9,9.85,10.75,16.59a44.36,44.36,0,0,1,1.37,11q.06,30.93,0,61.88c0,.41-.05.82-.08,1.2-1.1.35-27.91.45-29.82.11,0-.55-.11-1.13-.11-1.72q0-17.6,0-35.18c0-6.4,0-12.81-.06-19.21a22.94,22.94,0,0,0-1.09-6.67c-1.8-5.74-5.64-8.57-11.66-8.5-7.13.07-13.55,2.45-19.54,6.17a1.46,1.46,0,0,0-.77,1.39c0,.52,0,1,0,1.55q0,30,0,60.05c0,2.47.13,2.3-2.29,2.31H429.53c-.6,0-1.19-.07-1.86-.11Z"/><path class="cls-1" d="M1018.17,172.28c-.66,0-1.16.11-1.66.11H989.1a.79.79,0,0,1-.87-.88c0-.38,0-.76,0-1.13V80c0-2.06,0-2.07,2.12-2.07h21.9c1.56,0,1.57,0,2,1.5.66,2.11,1.31,4.22,2,6.33.16.53.37,1,.63,1.77.58-.39,1-.68,1.47-1a55.8,55.8,0,0,1,18-8.88,45.42,45.42,0,0,1,21.51-1.08c11.59,2.44,18.77,9.59,21.91,20.9a39.76,39.76,0,0,1,1.42,10.74v62.58c0,.46,0,.92-.06,1.35-1.15.33-27.91.41-29.7.08,0-.6-.08-1.23-.08-1.87q0-25.5,0-51a32.19,32.19,0,0,0-.86-8.54,20.08,20.08,0,0,0-1.79-4.58,9.77,9.77,0,0,0-8.11-5.15,31.42,31.42,0,0,0-15.91,3c-1.93.86-3.74,2-5.62,3a1.47,1.47,0,0,0-.89,1.59,8.51,8.51,0,0,1,0,1.13v62.52Z"/><path class="cls-1" d="M880.37,111.26a10.43,10.43,0,0,0-3.77-9.32,17.46,17.46,0,0,0-7.36-3.42A30,30,0,0,0,861,98a51.51,51.51,0,0,0-18.2,4.18c-1,.43-2,.89-3.13,1.43C836.75,97.79,833.9,92,831,86.13c.57-.38,1-.68,1.42-.94a64.73,64.73,0,0,1,21.73-8,87.56,87.56,0,0,1,19.26-1.36,54.41,54.41,0,0,1,19.16,3.69c9.65,4,15.43,11.23,17.63,21.39a54.27,54.27,0,0,1,1,11.65q0,22.11,0,44.21a75.88,75.88,0,0,0,.91,13c.14.82.3,1.64.48,2.6-.56,0-1,.09-1.47.09-7.44,0-14.89,0-22.33,0a2.08,2.08,0,0,1-2.18-1.32c-1.06-2.2-2.25-4.33-3.49-6.69-.54.4-1,.71-1.39,1.05a37.68,37.68,0,0,1-15.37,7.75c-8.13,1.86-16.23,1.83-24-1.54-9.94-4.33-15.86-12-17.5-22.74a33.56,33.56,0,0,1,.73-14.41c2.12-7.46,7-12.68,13.64-16.34a48.88,48.88,0,0,1,15.33-5.11,87.63,87.63,0,0,1,12.64-1.18c4.09-.11,8.18-.34,12.27-.52C879.76,111.37,879.94,111.32,880.37,111.26Zm0,19.55a4.61,4.61,0,0,0-.84-.19c-4.74,0-9.5-.31-14.23.42a17.9,17.9,0,0,0-6.39,2.11,8.53,8.53,0,0,0-4,4.76,9.73,9.73,0,0,0,6.7,12.78,24.87,24.87,0,0,0,8.67.76,23.66,23.66,0,0,0,8.75-2,2,2,0,0,0,1.36-2.16c-.07-5,0-10.07,0-15.1Z"/><path class="cls-1" d="M548.05,100.05H533.27c-.38-1.17-.49-19.85-.16-22a15.73,15.73,0,0,1,1.58-.14h11.59c.55,0,1.1-.06,1.76-.1.05-.71.11-1.3.11-1.9.05-4.29,0-8.58.16-12.85a35.42,35.42,0,0,1,4.07-15.43c3.64-6.79,9.32-11.24,16.41-14A46.2,46.2,0,0,1,589.34,31a47.69,47.69,0,0,1,15.92,4.07c.46.21.91.45,1.48.74L601,56.92l-2.14-.63a33.43,33.43,0,0,0-10.81-1.83,16.59,16.59,0,0,0-4,.62,7.52,7.52,0,0,0-5.32,5.38,13.9,13.9,0,0,0-.59,3.61c-.07,4.24,0,8.48,0,12.71a9,9,0,0,0,.1,1c.66,0,1.29.14,1.93.14H603.2c-.14.62-.21,1.07-.33,1.49Q599.94,89.05,597,98.7c-.41,1.35-.41,1.36-1.86,1.36h-15c-.64,0-1.28.08-2,.13v72a14.11,14.11,0,0,1-1.57.17H549.72c-.42,0-.83,0-1.43-.09,0-.73-.13-1.41-.13-2.1v-50q0-9,0-18.08C548.15,101.51,548.1,100.91,548.05,100.05Z"/><path class="cls-1" d="M404.18,172.32H374.39c-.05-.7-.14-1.33-.14-2V80c0-.6.05-1.2.08-1.77,1.24-.4,28.5-.41,29.85,0Z"/><path class="cls-1" d="M935,78.17c1.14-.32,27.83-.4,29.71-.09,0,.6.13,1.23.13,1.87v90.27c0,.65-.06,1.29-.08,1.89-1.35.4-28.44.4-29.76,0Z"/><path class="cls-1" d="M634.38,267.54v28.13h-9.71V252.23c.33,0,.64-.12,1-.13,2.68,0,5.37,0,8,0a1.76,1.76,0,0,1,1.55.75q10.14,12.85,20.31,25.71c.19.24.41.46.84.93a52.84,52.84,0,0,0,.11-5.55c0-1.79,0-3.58,0-5.37V252.36a52.81,52.81,0,0,1,9.73-.11v43.41a11.89,11.89,0,0,1-1.2.1c-2.26,0-4.52,0-6.78,0a2.22,2.22,0,0,1-2-1c-5.29-6.74-10.62-13.46-15.92-20.19-1.57-2-3.1-4-4.64-6.05l-.95-1.17Z"/><path class="cls-1" d="M715,296.57a28.76,28.76,0,0,1-9.43-1.67,19.56,19.56,0,0,1-12.78-15.47,24.56,24.56,0,0,1,1.18-14.16c3.27-7.8,9.17-12.33,17.58-13.49a26.54,26.54,0,0,1,12.54,1.12c7.5,2.63,12,8,13.4,15.73a25.82,25.82,0,0,1-.58,12.71c-2.63,8.2-8.43,12.91-16.73,14.67C718.46,296.36,716.7,296.39,715,296.57Zm-12.38-22.49c.15,1.35.21,2.72.46,4.05a12.89,12.89,0,0,0,4.66,8.15,11.85,11.85,0,0,0,18-4.4,18.46,18.46,0,0,0,0-15.6,10.62,10.62,0,0,0-6.77-6.2c-5.66-1.72-12.18,0-15.07,6.95A19,19,0,0,0,702.59,274.08Z"/><path class="cls-1" d="M834.24,296.57a29.18,29.18,0,0,1-8.77-1.43c-7.39-2.66-11.94-7.88-13.42-15.58a24.39,24.39,0,0,1,1.39-14.82,21,21,0,0,1,17.22-12.94,26.6,26.6,0,0,1,12.68,1.1c7.49,2.63,11.94,8,13.39,15.73a25.87,25.87,0,0,1-.35,11.9c-2.42,8.65-8.32,13.62-17,15.48A49.41,49.41,0,0,1,834.24,296.57Zm.45-37.1c-5.5,0-9.63,2.7-11.49,7.56a19.41,19.41,0,0,0,0,14.07,11.57,11.57,0,0,0,4,5.35,11.86,11.86,0,0,0,17.87-4.7,18.27,18.27,0,0,0,0-15.34A10.92,10.92,0,0,0,834.69,259.47Z"/><path class="cls-1" d="M596.72,252.19c.36,1.84.26,42.39-.1,43.5H587c-.11-2,0-3.92,0-5.87s0-4,0-5.93v-6.11c-2.26-.19-4.4-.07-6.54-.09s-4.34,0-6.5,0H567.3v18h-9.74c-.29-1-.38-41.61-.08-43.49h9.7c0,.53.11,1.07.11,1.61q0,6.84,0,13.7v1.74H587V252.19Z"/><path class="cls-1" d="M922.29,292.06a35.77,35.77,0,0,1-9.88,3.54,37.72,37.72,0,0,1-13.48.46,20.52,20.52,0,0,1-16.83-16.18,23.23,23.23,0,0,1,1-14c3.09-7.21,8.65-11.6,16.19-13.47,6.07-1.51,12.14-1,18.17.42.69.16,1.36.36,2,.55a4.15,4.15,0,0,1,.62.3c0,2.76,0,5.55-.12,8.55l-1.74-.74a24.09,24.09,0,0,0-15-1.63c-6.45,1.4-10.41,6-10.8,12.56a15.84,15.84,0,0,0,3.17,11,12.32,12.32,0,0,0,9.62,5.16,37.53,37.53,0,0,0,5.89-.39c1.35-.17,1.43-.41,1.44-1.79V273.49a49.62,49.62,0,0,1,9.67-.06C922.51,274.51,922.57,290.45,922.29,292.06Z"/><path class="cls-1" d="M467,277.56H453.5a45.89,45.89,0,0,0,0,10.08H469a31.77,31.77,0,0,1,.16,8H443.57c-.37-1.17-.41-42.07,0-43.49h25.83c-.79,2.69-1.56,5.28-2.36,8H453.5a42.3,42.3,0,0,0-.15,9.14c.54.05,1.12.15,1.71.16h10.16c.55,0,1.1.07,1.73.11Z"/><path class="cls-1" d="M1010.84,277.51l-6.9,0H997.1v10.09c1.75.13,3.48,0,5.19.06s3.58,0,5.37,0h5.42c0,2.7.06,5.3,0,8h-25.8c0-.6-.15-1.23-.15-1.86q0-13.83,0-27.67V252.38c1.16-.34,24.39-.41,26.06-.09-.77,2.61-1.54,5.2-2.34,7.92H997.11v9.13c.6.05,1.19.14,1.78.14h11.82a26.09,26.09,0,0,1,.12,3.91C1010.85,274.66,1010.84,275.92,1010.84,277.51Z"/><path class="cls-1" d="M1037.33,292.18c1.26-2.36,2.46-4.63,3.71-7l1.79,1.06a15.49,15.49,0,0,0,9.85,2.3,8.79,8.79,0,0,0,2.93-.92,3.35,3.35,0,0,0,1.09-5.44,10.25,10.25,0,0,0-2.21-1.95c-1.3-.84-2.71-1.51-4-2.29-2.2-1.28-4.42-2.52-6.55-3.88-6.45-4.11-6.77-14.35-.46-19.2a16,16,0,0,1,8.59-3.24,24.12,24.12,0,0,1,12,1.81c1.6.7,1.61.71,1.56,2.38-.07,2.11-.16,4.23-.25,6.56-.54-.23-1-.4-1.44-.6a26.87,26.87,0,0,0-7.37-2.35,8.19,8.19,0,0,0-5.22.7,3.15,3.15,0,0,0-1.23,4.79,5.8,5.8,0,0,0,1.41,1.55,31.57,31.57,0,0,0,3.2,2c2.46,1.38,5,2.62,7.43,4.05a12.26,12.26,0,0,1,2.21,19.53,16.19,16.19,0,0,1-9.4,4.17,25.79,25.79,0,0,1-16-3C1038.46,292.93,1038,292.59,1037.33,292.18Z"/><path class="cls-1" d="M529.9,262.13l-1.47-.66a20.49,20.49,0,0,0-14.31-1.31c-5.29,1.47-8.25,5.17-9.23,10.5a16.21,16.21,0,0,0,.81,8.88A12.9,12.9,0,0,0,517.91,288a22.25,22.25,0,0,0,9.83-2.2c.46-.22.93-.42,1.56-.7.88,2.24,1.72,4.4,2.63,6.73l-.54.31c-7.28,4.39-15.06,5.71-23.17,3.1-8.37-2.68-13-8.73-14.24-17.41a23,23,0,0,1,.74-10.33c2.39-7.46,7.55-12.24,14.91-14.6a30,30,0,0,1,18.07-.11c3.12.93,2.46.78,2.43,3.38,0,1.83-.06,3.67-.1,5.5A3.28,3.28,0,0,1,529.9,262.13Z"/><path class="cls-1" d="M405.62,260.16V278c0,3,0,5.93,0,8.9s0,5.81,0,8.78h-9.94c-.05-.65-.14-1.28-.14-1.91q0-15.69,0-31.37c0-.69-.07-1.39-.11-2.2H382.69c-.11-2.73-.07-5.33,0-8h36.6l-2,8Z"/><path class="cls-1" d="M773.92,287.67h14.75a33.11,33.11,0,0,1,.14,8H764.17c-.3-.95-.42-41.08-.11-43.47h9.62c0,.62.11,1.22.11,1.81q0,15.83,0,31.63C773.8,286.28,773.87,286.93,773.92,287.67Z"/><path class="cls-1" d="M949.68,252.17h9.48c.31,1,.4,41.67.08,43.5h-9.48C949.44,294.57,949.35,254.06,949.68,252.17Z"/><circle class="cls-2" cx="389.22" cy="44.85" r="14.02"/><circle class="cls-3" cx="949.53" cy="44.85" r="14.02"/></svg>