<?xml version="1.0" encoding="UTF-8"?>
<svg id="Layer_2" data-name="Layer 2" xmlns="http://www.w3.org/2000/svg" viewBox="0 0 1512.46 516.14">
  <defs>
    <style>
      .cls-1 {
        fill: #002d40;
      }

      .cls-2 {
        fill: #ff414d;
      }
    </style>
  </defs>
  <g id="Layer_1-2" data-name="Layer 1">
    <g>
      <g>
        <path class="cls-2" d="m298.6,154.75c-35.89-11.58-72.11-9.52-108.53-3.86,7.63,4.09,16.1,4.32,24.24,5.23,38.05,4.22,73.47,15.88,106.18,35.87,51.86,31.71,77.65,87.7,67.45,147.41-5.23,30.63-9.1,61.17-4.22,92.34,7.6,48.48,53.73,85.19,98.58,83.67,54.56-1.85,109.24-.44,163.87-.44,2.88,0,5.75.03,8.63-.04,10.33-.28,11.12-1.5,5.84-10.13-9.5-15.53-19.17-30.95-28.83-46.37-52.56-83.91-105.1-167.82-157.72-251.69-41.92-66.82-83.95-133.58-125.94-200.35-5.4-8.58-7.71-8.52-13.2.23-25.11,40.05-50.09,80.17-75.43,120.07-4.43,6.97-4.26,10.5,4.39,12.67,12.31,3.09,24.33,7.15,34.7,15.39Z"/>
        <path class="cls-1" d="m176.01,161.6c11.38,6.81,23.38,12.47,34.72,19.49,8.25,5.1,9.56,9.47,4.14,18.03-38.62,60.98-76.71,122.29-115.05,183.45-25.78,41.13-51.7,82.18-77.53,123.29-4.95,7.88-4.45,8.98,4.9,8.99,76.03.07,152.06,0,228.09.1,7.64,0,10.76-1.91,7.25-10.07-14.19-33.01-10.37-65.45,3.53-97.55,8.65-19.98,20.24-38.41,29.96-57.82,4.85-9.69,9.44-19.6,13.04-29.8,9.9-28,6.56-55.46-8.74-80.17-28.44-45.94-71.12-70.69-124.31-77.92Z"/>
        <path class="cls-2" d="m89.4,149.61c18.22-3.07,34.19-6.14,50.29-8.34,8.89-1.21,14.45-4.31,16.66-13.9,3.01-13.08,8.76-25.31,15.21-37.13,1.17-2.14,3.59-4.47,1.61-6.92-1.95-2.41-4.87-.74-7.17-.03-25.31,7.85-50.6,15.75-75.85,23.8-27.67,8.83-55.29,17.79-82.89,26.82-2.82.92-7.11.93-7.26,4.98-.11,3.15,3.49,4.3,5.8,5.83,46.35,30.64,92.73,61.22,139.14,91.76,2.02,1.33,4.19,4.12,6.72,2.49,2.61-1.68.82-4.77.25-7.07-3.44-13.75-4.49-27.73-4.12-41.82.19-7.17-2.36-11.89-9.22-15.04-15.08-6.93-29.85-14.51-44.73-21.88-1.04-.52-1.87-1.47-4.44-3.56Z"/>
        <path d="m328.23,435.24c.27-4.82.47-8.65.71-12.47.19-3.1-1.32-4.81-4.3-5.25-3.37-.5-5.63.78-6.21,4.29-1.42,8.52-2.44,17.08-1.39,25.73.38,3.11,1.62,5.56,5.42,5.31,3.85-.25,5.77-2.3,5.78-6.15,0-4.15,0-8.3,0-11.45Z"/>
        <path d="m357.63,296.23c-.46-4.41-.79-8.85-1.44-13.23-.4-2.73-1.8-4.82-5.1-4.38-3.1.41-5.74,1.64-5.66,5.21.2,8.86,1.62,17.65.94,26.59-.24,3.11,3.08,3.57,5.7,3.77,3.28.25,4.72-1.78,4.87-4.59.23-4.43.06-8.89.06-13.33.21-.01.43-.02.64-.03Z"/>
        <path d="m345.37,356.89c1.07-5.83-.61-7.34-3.35-8.24-3.45-1.13-5.59.25-6.6,3.45-2.59,8.15-5.08,16.33-7.53,24.52-.87,2.91.2,4.92,3.21,5.82,3.11.92,5.9.56,7.03-2.81,2.82-8.4,5.39-16.88,7.25-22.74Z"/>
        <path d="m262.55,174.08c-3.82-.18-4.97,2.12-6,4.48-1.09,2.51-.04,4.27,2.14,5.54,7.37,4.31,14.74,8.64,22.14,12.91,2.62,1.51,4.87.88,6.56-1.61,1.3-1.9,2.58-4.26.56-6.02-7.7-6.71-16.84-11.11-25.4-15.3Z"/>
        <path d="m313.18,222.41c.55.95,1.2,2.4,2.12,3.63,4.59,6.1,9.32,12.09,13.85,18.23,2.38,3.23,4.88,3.37,8.2,1.47,4.02-2.3,3.11-4.88,1.05-7.86-4.7-6.82-9.53-13.54-15.55-19.28-1.59-1.52-3.24-3.35-5.79-1.88-1.97,1.14-3.6,2.62-3.87,5.7Z"/>
        <path d="m336.27,485.61c-4.53,1.62-7.64,3.55-5.12,8.49,3.77,7.39,8.81,13.89,14.32,20.04,1.94,2.17,4.26,2.8,6.66.71,1.87-1.63,4.58-3.43,2.64-6.25-5.02-7.3-10.35-14.38-15.68-21.46-.65-.86-2.06-1.14-2.82-1.54Z"/>
      </g>
      <g>
        <g>
          <path class="cls-2" d="m754.95,331.36h-32.5v72.49h-40.8v-198.01h73.57c11.42,0,21.67,1.29,30.74,3.88,9.07,2.58,16.73,6.39,22.98,11.42,6.26,5.03,11.06,11.27,14.42,18.7,3.35,7.44,5.03,16.05,5.03,25.84,0,7.25-.82,13.76-2.45,19.52-1.63,5.76-3.99,10.88-7.07,15.37-3.08,4.49-6.8,8.41-11.15,11.76-4.35,3.36-9.25,6.26-14.69,8.7l42.84,80.92v1.9h-43.79l-37.13-72.49Zm-32.5-33.05h32.91c5.35,0,10.04-.7,14.08-2.11,4.03-1.4,7.39-3.4,10.06-5.98,2.67-2.58,4.69-5.66,6.05-9.25,1.36-3.58,2.04-7.59,2.04-12.04,0-9.34-2.65-16.68-7.96-22.03-5.3-5.35-13.44-8.02-24.41-8.02h-32.78v59.43Z"/>
          <path class="cls-2" d="m1022.05,309.33c0,15.14-2.04,28.72-6.12,40.73-4.08,12.01-9.82,22.19-17.2,30.53-7.39,8.34-16.25,14.76-26.59,19.24-10.34,4.49-21.71,6.73-34.14,6.73s-23.8-2.24-34.14-6.73c-10.34-4.49-19.24-10.9-26.72-19.24-7.48-8.34-13.31-18.52-17.48-30.53-4.17-12.01-6.26-25.59-6.26-40.73v-8.7c0-15.05,2.06-28.6,6.19-40.66,4.12-12.06,9.9-22.3,17.34-30.73,7.43-8.43,16.32-14.89,26.66-19.38,10.34-4.49,21.71-6.73,34.14-6.73s23.8,2.24,34.14,6.73c10.34,4.49,19.22,10.95,26.66,19.38,7.43,8.43,13.21,18.68,17.34,30.73,4.12,12.06,6.19,25.61,6.19,40.66v8.7Zm-41.34-8.98c0-20.76-3.72-36.54-11.15-47.33-7.43-10.79-18.04-16.18-31.82-16.18s-24.39,5.4-31.82,16.18c-7.44,10.79-11.15,26.57-11.15,47.33v8.98c0,10.34.97,19.47,2.92,27.4,1.95,7.93,4.76,14.6,8.43,19.99,3.67,5.4,8.18,9.47,13.53,12.24,5.35,2.77,11.47,4.15,18.36,4.15,13.78,0,24.34-5.44,31.69-16.32,7.34-10.88,11.02-26.7,11.02-47.46v-8.98Z"/>
          <path class="cls-2" d="m1114.12,295.05l41.21-89.21h44.61l-65.01,126.21v71.81h-41.48v-71.81l-65.01-126.21h44.74l40.94,89.21Z"/>
          <path class="cls-2" d="m1309.41,363.05h-71.53l-13.6,40.8h-43.38l73.71-198.01h37.81l74.12,198.01h-43.38l-13.74-40.8Zm-60.52-33.05h49.5l-24.89-74.12-24.62,74.12Z"/>
          <path class="cls-2" d="m1425.83,371.07h86.63v32.78h-127.43v-198.01h40.8v165.24Z"/>
        </g>
        <g>
          <path class="cls-1" d="m733.27,459.3h-20.29v55.95h-11.22v-55.95h-20.11v-9.12h51.61v9.12Z"/>
          <path class="cls-1" d="m840.76,490.18h-12.6v25.07h-11.31v-65.07h22.88c3.72,0,7.05.42,9.97,1.27,2.92.85,5.39,2.1,7.4,3.75,2.01,1.65,3.54,3.7,4.58,6.14,1.04,2.44,1.56,5.27,1.56,8.49,0,4.35-1.05,7.99-3.15,10.93-2.1,2.93-5.03,5.19-8.78,6.77l14.61,27.13v.58h-12.11l-13.05-25.07Zm-12.6-9.07h11.62c2.03,0,3.8-.27,5.32-.8,1.52-.54,2.79-1.28,3.8-2.23,1.01-.95,1.77-2.08,2.28-3.4.51-1.31.76-2.76.76-4.33,0-1.67-.24-3.18-.72-4.54-.48-1.36-1.21-2.52-2.19-3.49-.98-.97-2.24-1.71-3.78-2.23-1.53-.52-3.37-.78-5.52-.78h-11.57v21.81Z"/>
          <path class="cls-1" d="m985.43,500.1h-25.2l-5.27,15.15h-11.75l24.58-65.07h10.14l24.62,65.07h-11.8l-5.32-15.15Zm-22.03-9.12h18.86l-9.43-26.99-9.43,26.99Z"/>
          <path class="cls-1" d="m1104.45,501.08l16.54-50.9h12.42l-23.42,65.07h-10.95l-23.33-65.07h12.38l16.36,50.9Z"/>
          <path class="cls-1" d="m1253.81,486.2h-26.72v20.02h31.24v9.03h-42.54v-65.07h42.23v9.12h-30.92v17.96h26.72v8.94Z"/>
          <path class="cls-1" d="m1353.89,506.22h29.54v9.03h-40.85v-65.07h11.31v56.04Z"/>
          <path class="cls-1" d="m1501.15,498.49c0-1.31-.19-2.48-.58-3.51-.39-1.03-1.1-1.97-2.12-2.84-1.03-.86-2.44-1.69-4.25-2.48-1.8-.79-4.12-1.62-6.95-2.48-3.1-.92-5.96-1.98-8.58-3.17-2.62-1.19-4.88-2.58-6.77-4.16-1.89-1.58-3.37-3.4-4.45-5.45-1.07-2.06-1.61-4.41-1.61-7.06s.56-5.03,1.68-7.24c1.12-2.2,2.69-4.11,4.71-5.72,2.03-1.61,4.45-2.86,7.28-3.75,2.83-.89,5.96-1.34,9.38-1.34,3.66,0,6.96.53,9.88,1.59,2.92,1.06,5.39,2.5,7.4,4.31,2.01,1.82,3.55,3.93,4.63,6.32,1.07,2.4,1.61,4.95,1.61,7.66h-11.26c0-1.58-.25-3.03-.74-4.36-.49-1.33-1.24-2.47-2.26-3.44-1.01-.97-2.29-1.72-3.84-2.26-1.55-.54-3.38-.8-5.5-.8-2,0-3.72.22-5.18.67-1.46.45-2.67,1.07-3.64,1.88-.97.8-1.68,1.76-2.15,2.86-.46,1.1-.69,2.29-.69,3.58,0,2.41,1.14,4.42,3.42,6.03,2.28,1.61,5.76,3.1,10.43,4.47,3.66,1.07,6.84,2.26,9.52,3.58,2.68,1.31,4.91,2.79,6.68,4.45,1.77,1.65,3.09,3.52,3.96,5.59.86,2.07,1.3,4.4,1.3,6.99,0,2.74-.54,5.21-1.63,7.4s-2.64,4.05-4.65,5.59c-2.01,1.53-4.45,2.71-7.31,3.53-2.86.82-6.05,1.23-9.56,1.23-3.13,0-6.21-.42-9.25-1.27-3.04-.85-5.76-2.13-8.18-3.84-2.41-1.71-4.36-3.85-5.83-6.41-1.48-2.56-2.21-5.57-2.21-9.03h11.31c0,2.06.36,3.82,1.1,5.3.73,1.47,1.73,2.68,2.99,3.62,1.27.94,2.76,1.62,4.49,2.06,1.73.43,3.59.65,5.59.65,3.93,0,6.89-.8,8.87-2.39,1.98-1.59,2.97-3.7,2.97-6.32Z"/>
        </g>
      </g>
    </g>
  </g>
</svg>